<svg width="41" height="24" viewBox="0 0 41 24" fill="none" xmlns="http://www.w3.org/2000/svg">
<rect width="41" height="24" rx="2" fill="#F6D838"/>
<path d="M7.02148 17V7.84033H4.69189V17H7.02148ZM18.4663 17V7.84033H15.7749L13.4644 13.7246H13.4136L11.103 7.84033H8.41162V17H10.4619V11.2808H10.5127L12.7725 16.9048H14.1055L16.3716 11.2808H16.416V17H18.4663ZM19.8501 7.84033V17H23.5698C26.3311 17 27.9624 15.2925 27.9624 12.3662C27.9624 9.44629 26.3374 7.84033 23.5698 7.84033H19.8501ZM22.1797 9.71924H23.2651C24.7378 9.71924 25.5947 10.6523 25.5947 12.3726C25.5947 14.2007 24.7822 15.1211 23.2651 15.1211H22.1797V9.71924ZM33.3833 17.1016C35.1162 17.1016 36.1191 15.8003 36.1191 13.5469C36.1191 11.2871 35.1099 9.98584 33.3643 9.98584C32.3804 9.98584 31.625 10.481 31.2759 11.3125H31.2314V7.84033H28.978V17H31.2188V15.813H31.2632C31.6123 16.6128 32.3677 17.1016 33.3833 17.1016ZM32.52 11.7441C33.3135 11.7441 33.8213 12.4487 33.8213 13.5469C33.8213 14.645 33.3198 15.3433 32.52 15.3433C31.7329 15.3433 31.2251 14.6514 31.2188 13.5469C31.2251 12.4551 31.7393 11.7441 32.52 11.7441Z" fill="#020102"/>
</svg>
