<svg width="16" height="17" viewBox="0 0 16 17" fill="none" xmlns="http://www.w3.org/2000/svg">
<path d="M4.3003 16.1251C3.91696 16.4251 3.5253 16.4334 3.1253 16.1501C2.7253 15.8668 2.59196 15.4918 2.7253 15.0251L4.1503 10.4001L0.525297 7.8251C0.125297 7.54176 0.00463073 7.16676 0.163297 6.7001C0.321297 6.23343 0.641964 6.0001 1.1253 6.0001H5.6003L7.0503 1.2001C7.13363 0.966764 7.26296 0.787431 7.4383 0.662098C7.61296 0.537431 7.8003 0.475098 8.0003 0.475098C8.2003 0.475098 8.38763 0.537431 8.5623 0.662098C8.73763 0.787431 8.86696 0.966764 8.9503 1.2001L10.4003 6.0001H14.8753C15.3586 6.0001 15.6796 6.23343 15.8383 6.7001C15.9963 7.16676 15.8753 7.54176 15.4753 7.8251L11.8503 10.4001L13.2753 15.0251C13.4086 15.4918 13.2753 15.8668 12.8753 16.1501C12.4753 16.4334 12.0836 16.4251 11.7003 16.1251L8.0003 13.3001L4.3003 16.1251Z" fill="#E64E9A"/>
</svg>
