<svg width="20" height="20" viewBox="0 0 20 20" fill="none" xmlns="http://www.w3.org/2000/svg">
<path d="M10.001 0.000976562C4.48098 0.000976562 0.000976562 4.48098 0.000976562 10.001C0.000976562 15.521 4.48098 20.001 10.001 20.001C15.521 20.001 20.001 15.521 20.001 10.001C20.001 4.48098 15.521 0.000976562 10.001 0.000976562ZM10.001 4.00098C11.931 4.00098 13.501 5.57098 13.501 7.50098C13.501 9.43098 11.931 11.001 10.001 11.001C8.07098 11.001 6.50098 9.43098 6.50098 7.50098C6.50098 5.57098 8.07098 4.00098 10.001 4.00098ZM10.001 18.001C7.97098 18.001 5.57098 17.181 3.86098 15.121C5.55098 13.801 7.68098 13.001 10.001 13.001C12.321 13.001 14.451 13.801 16.141 15.121C14.431 17.181 12.031 18.001 10.001 18.001Z" fill="#E64E9A"/>
</svg>
